<svg width="960" height="503" viewBox="0 0 960 503" fill="none" xmlns="http://www.w3.org/2000/svg">
<path d="M434.243 10.2409H423V0H457.826V10.2409H446.587V39.9631H434.243V10.2409ZM459.746 0H493.554V10.2409H472.094V15.2484H493.554V24.7608H472.094V29.7406H493.554V40H459.746V0ZM507.984 29.7499H512.822C520.518 29.7499 521.642 23.5159 521.642 19.7625C521.66 19.5597 521.67 19.3199 521.67 19.0801C521.67 14.1787 517.683 10.1994 512.762 10.1994C512.443 10.1994 512.128 10.2179 511.819 10.2501L511.855 10.2455H507.906V29.7499H507.984ZM495.636 0H515.912C529.283 0 534 9.84438 534 19.9193C534 32.1844 527.483 39.9816 513.493 39.9816H495.631L495.636 0Z" fill="#FF9D7D"/>
<path d="M257.585 52.6769C257.585 52.6769 256.001 54.6958 255.134 58.73C254.266 62.7715 254.594 66.5576 256.082 66.7537C256.656 66.8272 257.607 66.3578 258.397 63.8835C259.156 61.6635 259.391 59.2955 259.083 56.9654C258.641 53.7235 257.604 52.7091 257.585 52.6769ZM273.463 49.878C270.006 50.0395 267.089 49.4844 264.463 49.614C261.955 49.7366 260.462 50.0402 259.022 51.1541C258.827 51.3185 258.644 51.4961 258.473 51.6856C258.473 51.6856 260.874 53.9808 260.346 60.4639C259.816 67.0399 256.855 68.7063 255.27 67.8975C253.608 67.0408 253.136 63.608 253.597 60.047C254.084 56.3179 256.32 52.1681 256.32 52.1681C256.32 52.1681 254.822 52.1247 252.998 55.2517C251.206 58.2863 248.712 64.518 247.969 73.0209C247.221 81.5265 248.301 85.3448 249.211 88.3169C250.12 91.289 252.291 93.7783 255.187 92.1061C258.083 90.434 258.895 84.0508 258.958 81.959C259.07 78.0664 257.678 72.9987 255.62 74.9905C254.605 75.9749 254.407 77.8439 254.536 79.4632C254.624 80.499 254.826 81.5224 255.137 82.5151C254.495 83.3489 253.971 84.2669 253.577 85.2437C253.123 86.2984 252.76 87.3906 252.493 88.5082C252.493 88.5082 251.29 86.4046 250.993 82.0483C250.703 77.6939 252.86 74.3811 254.508 73.2337C255.994 72.2099 258.792 72.3676 259.903 78.2603C261.013 84.1531 259.376 93.0436 254.089 96.1943C249.211 99.1024 242.35 94.6584 242.847 79.7081C243.406 63.1702 250.144 54.31 252.788 52.2316C255.436 50.1506 257.111 50.8828 257.111 50.8828C258.436 49.1654 260.132 47.7726 262.074 46.8092C265.74 45.0111 269.908 45.9427 274.527 45.6254C274.106 47.065 273.757 48.5243 273.465 49.8708M286.93 36.6367C285.396 39.6206 282.842 42.9971 279.417 44.5693C279.088 45.8942 278.78 47.3915 278.521 48.9762C284.795 46.8452 287.706 40.4893 288.606 35.9942C288.944 34.3721 289.083 32.7138 289.018 31.0566C288.544 32.9945 287.841 34.8643 286.93 36.6367ZM288.632 56.9001C288.632 56.8009 288.622 56.7018 288.602 56.6046C288.511 56.4841 288.381 56.3987 288.234 56.3627C288.088 56.3266 287.933 56.3421 287.797 56.4066C287.248 56.6932 286.573 57.2177 285.887 60.4542C285.313 63.1351 285.07 65.8779 285.164 68.6206C285.228 71.2711 285.649 73.0278 286.5 73.0518C286.769 73.0406 287.022 72.9271 287.209 72.7346C287.577 72.3873 287.829 71.7019 288.075 70.4246C288.185 69.8213 288.236 69.0311 288.331 68.1361C288.601 65.673 288.637 58.3696 288.632 56.9001ZM270.041 70.7261C269.878 69.7035 269.332 67.8161 268.11 67.6568C266.799 67.4931 265.413 70.447 266.355 72.1114C267.322 73.8173 269.413 73.6286 269.871 73.5115C270.134 73.4391 270.2 73.3829 270.206 73.14C270.207 72.3327 270.151 71.5261 270.041 70.7261ZM270.065 74.8225C269.336 74.8879 268.601 74.854 267.881 74.7217C267.162 74.5927 266.472 74.3314 265.847 73.951C265.778 73.9169 265.77 73.9769 265.763 74.0487C265.757 74.1132 265.688 74.3313 265.5 76.8633C265.314 79.3998 265.596 84.2684 267.679 83.9184C269.022 83.6949 269.737 80.6994 270 78.8361C270.161 77.5467 270.232 76.2472 270.211 74.9472C270.204 74.8096 270.134 74.8137 270.065 74.8225ZM292.095 67.9139C292.06 68.9338 292.36 70.681 293.377 68.8974C294.629 66.7266 294.949 61.0999 294.949 61.0999L296.164 60.3988C296.044 62.743 295.75 65.0743 295.284 67.3733C294.604 70.588 293.394 73.8575 291.641 74.6115C289.607 75.4913 288.747 72.6257 288.747 72.6257C288.747 72.6257 287.703 77.1246 285.686 78.0129C282.969 79.2014 281.918 75.5812 281.918 75.5812C281.918 75.5812 281.087 80.8096 279.052 81.8369C275.862 83.4335 274.46 79.2178 273.789 76.0653C273.429 74.3835 273.212 73.0239 273.212 73.0239C273.212 73.0239 272.951 73.2794 272.351 73.7544C272.032 74.0061 271.43 74.4027 271.43 74.4027C271.43 74.4027 271.462 77.4213 271.22 79.3832C270.982 81.3425 269.333 88.5832 266.213 89.1269C263.334 89.6231 262.013 85.5145 261.721 81.8119C261.293 76.4144 263.461 67.0458 267.207 65.9566C271.081 64.8243 271.355 72.9611 271.355 72.9611C271.355 72.9611 271.369 72.9841 271.411 72.984C271.493 72.9673 271.685 72.8871 272.045 72.5688C272.42 72.2382 272.764 71.8751 273.075 71.4836C273.075 71.4836 272.347 62.327 273.403 55.4467C274.465 48.5757 277.314 36.1326 281.402 36.3863C282.396 36.4567 283.031 38.2984 283.221 40.8701C282.865 41.2659 282.489 41.6427 282.094 41.999C282.06 40.4361 281.914 39.1889 281.638 38.4154C280.68 35.7292 277.991 44.1103 277.133 51.9374C276.617 56.6573 276.483 61.4125 276.733 66.1567C277.204 65.2902 277.612 64.3905 277.953 63.4646C278.888 60.9279 279.674 58.3376 280.305 55.7072C280.936 53.2159 281.417 50.6885 281.747 48.1386C282.164 47.8695 282.567 47.5776 282.953 47.2643C282.638 50.124 282.131 52.9584 281.435 55.7483C280.774 58.3079 280.048 61.0711 279.269 63.226C278.583 65.1587 277.771 67.0437 276.838 68.8689C276.838 68.8689 277.435 78.0523 279.619 77.3992C280.905 77.0244 281.14 72.2875 281.14 72.2875C281.14 72.2875 281.481 66.1577 282.071 63.1362C282.888 59.0264 284.03 56.2627 286.076 55.0445C287.259 54.3309 288.703 55.2026 288.703 55.2026L288.762 54.0029L292.231 52C292.231 52 292.122 66.7755 292.085 67.9074M286.935 36.6459C285.398 39.6252 282.844 43.0017 279.42 44.5739C279.086 45.9014 278.782 47.3961 278.519 48.9835C284.797 46.8499 287.707 40.5012 288.608 35.9988C288.946 34.3751 289.084 32.7153 289.018 31.0566C288.544 32.9945 287.841 34.8643 286.93 36.6367M241.344 70.1828L238.044 72.0878L237.927 76.1925L241.227 74.2874L241.344 70.1828ZM231.766 89.6827C232.057 86.9378 232.022 77.9333 232.022 77.9333C231.931 77.8135 231.802 77.7282 231.656 77.6918C231.511 77.6553 231.357 77.6697 231.221 77.7327C230.669 78.0147 229.882 78.7147 229.392 81.973C228.907 85.2286 228.551 87.7966 228.615 90.2258C228.679 92.8763 229.014 94.5786 229.874 94.5973C230.138 94.5822 230.386 94.4713 230.574 94.2853C230.928 93.946 231.227 93.215 231.473 91.9378C231.601 91.1894 231.7 90.4363 231.771 89.6801M208.781 90.7442C207.47 90.5805 206.084 93.5344 207.024 95.1943C207.99 96.9002 210.394 96.2057 210.67 96.0588C210.753 96.0202 210.823 95.9583 210.872 95.8805C210.904 95.8234 210.917 95.7578 210.91 95.6927C210.878 95.0627 210.813 94.4346 210.716 93.811C210.551 92.7837 210.003 90.9035 208.781 90.7442ZM210.78 97.3818C210.037 97.5467 209.275 97.6151 208.514 97.5854C207.768 97.544 207.044 97.3084 206.415 96.9018C206.351 96.8651 206.338 96.9277 206.335 96.9968C206.33 97.0614 206.282 97.4019 206.094 99.9457C205.914 102.491 206.229 107.291 208.324 106.941C209.663 106.72 210.388 103.7 210.658 101.839C210.832 100.4 210.924 98.9514 210.934 97.5012C210.912 97.367 210.854 97.3632 210.78 97.3818ZM238.375 82.9468L239.58 82.251C239.58 82.251 238.606 94.5441 234.946 96.1111C232.909 96.9863 232.107 94.2957 232.107 94.2957C232.107 94.2957 231.246 98.9955 228.411 99.7794C225.847 100.493 225.137 95.9275 225.137 95.9275C224.938 96.1769 223.262 104.439 219.105 105.091C214.751 105.764 213.952 100.115 213.836 98.3473C213.737 96.8524 213.716 95.3553 213.716 95.3553C213.716 95.3553 213.261 95.8266 212.958 96.1059L212.212 96.7821C212.212 96.7821 212.113 100.496 211.878 102.46C211.636 104.421 209.986 111.65 206.872 112.203C203.754 112.751 202.303 108.767 202.091 105.055C201.749 99.0436 204.007 90.1073 207.861 89.0356C211.75 87.95 212.131 95.0864 212.131 95.0864C212.131 95.0864 212.855 94.7848 213.832 92.7419C215.237 89.8083 215.829 83.7543 219.444 82.3422C221.147 81.672 223.531 82.4365 223.302 86.6428C223.231 87.9907 222.668 89.4815 221.352 89.0874C220.53 88.8381 220.411 87.6059 220.557 86.62C220.607 86.2262 220.753 85.851 220.982 85.5275C221.21 85.204 221.515 84.9419 221.869 84.7644C221.869 84.7644 221.694 83.1907 220.306 84.0161C219.188 84.6926 217.856 88.9895 217.783 92.5897C217.719 95.8969 217.886 101.371 220.662 100.983C223.212 100.628 224.44 93.6732 224.841 90.1656C225.244 86.6626 226.18 78.7049 229.535 76.4732C230.686 75.7044 232.033 76.3868 232.033 76.3868L232.067 75.5144L235.545 73.5061C235.545 73.5061 235.333 88.2734 235.298 89.398C235.27 90.2796 235.586 92.0544 236.581 90.3814C237.584 88.7104 238.375 82.9468 238.375 82.9468ZM246.636 101.638C243.046 101.336 239.459 102.208 236.413 104.123C235.584 104.633 234.888 105.331 234.38 106.161C233.872 106.992 233.567 107.931 233.49 108.903C230.819 107.347 227.374 107.434 223.337 109.808C216.826 113.665 212.076 120.456 206.927 123.423C201.992 126.273 196.591 125.237 193.514 119.633C188.127 109.804 191.25 96.3436 195.074 88.8904C197.287 84.6063 199.839 82.2312 201.884 81.3389C203.377 80.6857 206.003 81.3409 206.324 84.3521C206.783 88.7561 204.46 89.717 203.571 87.9971C202.987 86.8801 203.315 85.7764 203.636 85.0823C203.907 84.6467 204.283 84.2864 204.729 84.0338C204.889 83.5916 204.006 81.5432 201.868 83.6182C199.73 85.6933 198.118 89.9303 197.078 94.7952C196.04 99.6647 195.042 108.309 197.602 115.303C198.784 118.547 202.226 123.726 209.153 119.647C215.024 116.196 221.467 107.267 229.507 102.736C232.284 101.118 235.45 100.291 238.666 100.344C241.472 100.429 245.03 100.866 246.646 101.633" fill="#FF9D7D"/>
<g clip-path="url(#clip0_1_5770)">
<path d="M60.0607 280.174L63.1574 274.81C63.9263 273.433 64.9276 272.2 66.1176 271.165C67.1535 270.254 68.3842 269.591 69.7159 269.227C71.0476 268.864 72.4449 268.81 73.8014 269.068C75.3496 269.357 76.8342 269.919 78.1859 270.728C79.5619 271.495 80.7909 272.499 81.8154 273.695C82.7175 274.741 83.369 275.978 83.7201 277.313C84.0712 278.648 84.1127 280.045 83.8414 281.398C83.5406 282.946 82.9734 284.43 82.165 285.784L79.0684 291.148L60.0607 280.174ZM78.9844 289.854L81.6498 285.238C82.3957 283.99 82.9175 282.621 83.1915 281.193C83.4365 279.935 83.3932 278.639 83.0648 277.4C82.7363 276.162 82.1313 275.014 81.2952 274.042C80.3456 272.933 79.2067 272.001 77.9315 271.29C76.6703 270.539 75.2893 270.01 73.8489 269.726C72.5887 269.483 71.2908 269.52 70.047 269.835C68.806 270.166 67.6551 270.771 66.678 271.604C65.559 272.556 64.6179 273.699 63.8982 274.98L61.2292 279.603L78.9847 289.854L78.9844 289.854ZM82.1684 269.947C83.4968 270.733 85.0412 271.074 86.5764 270.921C88.1116 270.768 89.5574 270.129 90.7031 269.097C91.3373 268.547 91.8797 267.899 92.3099 267.178C93.0232 265.971 93.3889 264.59 93.3667 263.189C93.3369 261.782 92.8804 260.417 92.0575 259.274L92.5176 258.477C93.0404 259.166 93.4486 259.934 93.7262 260.752C93.9829 261.512 94.1258 262.305 94.15 263.106C94.1687 263.89 94.07 264.672 93.857 265.427C93.6479 266.186 93.3428 266.915 92.9491 267.596C92.3909 268.59 91.6422 269.464 90.7457 270.168C89.9129 270.818 88.9563 271.292 87.934 271.562C86.9093 271.827 85.8424 271.888 84.7939 271.741C83.6847 271.588 82.6168 271.217 81.6517 270.649L81.6827 270.667C80.697 270.111 79.8338 269.361 79.1451 268.463C78.4974 267.619 78.0209 266.658 77.7425 265.632C77.4691 264.603 77.4066 263.529 77.5587 262.475C77.7212 261.362 78.1003 260.292 78.6747 259.326C79.1898 258.429 79.8642 257.634 80.6648 256.98C81.4536 256.332 82.3565 255.837 83.3271 255.52C84.3211 255.2 85.3694 255.082 86.4099 255.175C87.5411 255.276 88.641 255.602 89.6453 256.133L90.0172 256.381L82.1684 269.947ZM88.9964 256.681C88.1623 256.243 87.2415 255.994 86.3002 255.954C85.3684 255.909 84.4361 256.029 83.5471 256.311C82.6632 256.592 81.838 257.031 81.112 257.607C80.3888 258.174 79.7951 258.888 79.3705 259.702C78.8923 260.521 78.5708 261.422 78.4225 262.359C78.2768 263.262 78.2978 264.185 78.4842 265.08C78.6727 265.972 79.0291 266.82 79.5344 267.579C80.0627 268.374 80.7484 269.053 81.5492 269.573L88.9964 256.681ZM94.4668 255.842C95.5488 256.467 96.5737 256.625 97.5405 256.317C98.5269 255.993 99.3503 255.302 99.8396 254.387C100.116 253.926 100.291 253.412 100.354 252.878C100.433 252.154 100.291 251.423 99.9477 250.78C99.6041 250.137 99.0745 249.613 98.4282 249.276C98.0419 249.039 97.6124 248.881 97.1647 248.811C96.7171 248.742 96.2601 248.762 95.8203 248.87C95.0332 249.102 94.204 249.698 93.3331 250.659C92.9184 251.052 92.4905 251.431 92.0502 251.795C91.6684 252.116 91.2386 252.375 90.7765 252.562C90.333 252.737 89.8565 252.813 89.3803 252.785C88.8113 252.734 88.2605 252.558 87.7673 252.269C87.2523 251.984 86.8042 251.592 86.453 251.12C86.1435 250.699 85.9261 250.217 85.8152 249.706C85.7089 249.199 85.7061 248.675 85.8069 248.166C85.9161 247.619 86.1163 247.095 86.3991 246.615C86.6668 246.142 87.0137 245.719 87.4246 245.364C87.8108 245.03 88.2611 244.779 88.7485 244.626C89.2432 244.475 89.7643 244.431 90.2776 244.496C90.8685 244.577 91.4367 244.778 91.9473 245.087L91.5377 245.796C91.0971 245.532 90.6068 245.363 90.0976 245.297C89.6787 245.242 89.2528 245.279 88.8502 245.407C88.4678 245.538 88.1189 245.752 87.8282 246.033C87.53 246.316 87.274 246.641 87.068 246.997C86.8179 247.384 86.6483 247.816 86.5693 248.27C86.4902 248.723 86.5033 249.188 86.6078 249.637C86.7142 250.053 86.9106 250.441 87.1831 250.773C87.4556 251.105 87.7976 251.374 88.185 251.56C89.0163 251.996 89.7636 252.079 90.4266 251.808C91.2588 251.425 92.0125 250.89 92.6493 250.232C93.0216 249.86 93.4112 249.489 93.8169 249.117C94.2091 248.754 94.6596 248.46 95.1497 248.247C95.661 248.031 96.2121 247.925 96.7673 247.936C97.4651 247.97 98.1453 248.167 98.7539 248.51C99.3065 248.779 99.7918 249.168 100.174 249.649C100.539 250.115 100.812 250.646 100.978 251.214C101.146 251.789 101.195 252.392 101.122 252.986C101.043 253.614 100.835 254.219 100.512 254.763C100.195 255.313 99.7813 255.801 99.2897 256.203C98.8152 256.596 98.2694 256.894 97.6821 257.081C97.1011 257.264 96.4868 257.319 95.8822 257.241C95.2318 257.154 94.6103 256.917 94.0668 256.55L94.4668 255.842ZM88.0748 237.409L87.7154 238.031L85.2226 236.592L85.582 235.97L88.0748 237.409ZM104.59 246.944L104.231 247.566L90.5198 239.65L90.8792 239.028L104.59 246.944ZM108.57 243.647C109.057 243.687 109.547 243.682 110.033 243.632C110.651 243.569 111.255 243.408 111.822 243.154C112.651 242.829 113.415 242.355 114.074 241.756C114.66 241.234 115.162 240.626 115.565 239.952C116.025 239.151 116.324 238.268 116.447 237.352C116.58 236.424 116.53 235.479 116.3 234.57C116.056 233.629 115.633 232.744 115.055 231.962C114.352 231.14 113.586 230.374 112.763 229.672L110.685 228.472L110.64 228.55C111.465 229.772 111.923 231.204 111.959 232.678C111.974 234.241 111.55 235.776 110.737 237.111C110.138 238.18 109.319 239.109 108.333 239.836C107.449 240.487 106.445 240.957 105.378 241.219C104.35 241.466 103.282 241.504 102.238 241.332C101.182 241.161 100.167 240.799 99.2416 240.262C98.3087 239.723 97.4846 239.015 96.8118 238.174C96.1325 237.336 95.6291 236.37 95.3318 235.333C95.0344 234.296 94.9491 233.21 95.0811 232.14C95.2292 230.936 95.6272 229.776 96.2497 228.735C96.6964 227.945 97.2667 227.232 97.9389 226.622C98.5374 226.079 99.2066 225.619 99.9284 225.255C100.572 224.933 101.261 224.711 101.971 224.596C102.58 224.489 103.201 224.478 103.813 224.564L103.844 224.511L100.417 222.532L100.776 221.909L112.997 228.965C113.823 229.516 114.583 230.161 115.261 230.887C115.819 231.506 116.279 232.207 116.625 232.965C116.929 233.641 117.129 234.36 117.218 235.096C117.3 235.775 117.308 236.46 117.243 237.14C117.187 237.745 117.061 238.341 116.869 238.917C116.72 239.377 116.528 239.822 116.294 240.245C115.897 240.932 115.41 241.564 114.847 242.124C114.279 242.691 113.634 243.175 112.932 243.563C112.222 243.957 111.459 244.246 110.667 244.422C109.821 244.613 108.946 244.634 108.092 244.483L108.57 243.647ZM107.256 226.63C106.369 226.105 105.384 225.764 104.362 225.628C103.409 225.499 102.44 225.559 101.51 225.803C100.588 226.052 99.7254 226.483 98.972 227.069C98.1741 227.689 97.5069 228.46 97.009 229.339C96.4971 230.208 96.1585 231.169 96.0118 232.167C95.8717 233.114 95.9154 234.079 96.1404 235.009C96.3739 235.947 96.7957 236.828 97.3802 237.597C98.0143 238.432 98.8132 239.128 99.7271 239.641C100.521 240.095 101.387 240.408 102.288 240.568C103.24 240.747 104.219 240.731 105.165 240.521C106.112 240.311 107.005 239.911 107.792 239.346C108.727 238.663 109.499 237.783 110.054 236.767C110.578 235.883 110.911 234.899 111.032 233.878C111.142 232.928 111.062 231.966 110.794 231.047C110.527 230.129 110.078 229.273 109.475 228.53C108.861 227.764 108.108 227.119 107.256 226.63ZM105.905 219.479L105.936 219.426C105.563 218.936 105.297 218.373 105.158 217.773C105.011 217.157 104.956 216.523 104.997 215.891C105.041 215.244 105.164 214.604 105.365 213.987C105.564 213.372 105.835 212.784 106.174 212.233C107.188 210.478 108.463 209.309 109.998 208.726C111.869 208.038 114.035 208.405 116.497 209.826L123.633 213.946L123.273 214.568L116.06 210.403C115.072 209.795 113.981 209.372 112.842 209.156C111.978 209.004 111.09 209.06 110.253 209.321C109.479 209.571 108.774 209.996 108.193 210.565C107.612 211.134 107.111 211.781 106.706 212.487C105.738 214.244 105.438 215.896 105.806 217.442C106.174 218.988 107.218 220.256 108.94 221.247L116.805 225.788L116.445 226.411L102.734 218.495L103.094 217.872L105.905 219.479ZM125.618 210.522L106.61 199.548L112.182 189.898L114.051 190.977L109.558 198.759L116.102 202.537L120.415 195.067L122.285 196.146L117.971 203.617L126.696 208.654L125.618 210.522ZM132.167 199.178L118.145 191.083L119.223 189.215L121.405 190.474L121.433 190.424C121.043 189.933 120.74 189.378 120.54 188.784C120.381 188.245 120.341 187.678 120.423 187.122C120.56 186.366 120.81 185.634 121.165 184.952L123.212 186.134C122.801 186.99 122.613 187.937 122.666 188.886C122.737 189.74 123.071 190.552 123.622 191.21C124.137 191.859 124.766 192.408 125.479 192.83L133.244 197.313L132.167 199.178L132.167 199.178ZM130.367 169.914L144.389 178.01L143.311 179.878L140.817 178.438L140.794 178.479C141.062 179.044 141.271 179.636 141.416 180.245C141.566 181.09 141.571 181.955 141.43 182.802C141.258 183.805 140.9 184.766 140.375 185.638C139.627 186.995 138.527 188.126 137.192 188.913C135.917 189.654 134.456 190.012 132.982 189.945C131.518 189.908 130.085 189.509 128.813 188.782C127.533 188.043 126.468 186.983 125.723 185.708C124.946 184.42 124.553 182.938 124.592 181.435C124.617 179.918 125.032 178.432 125.798 177.122C126.267 176.288 126.88 175.543 127.608 174.922C128.262 174.365 129.013 173.934 129.824 173.652C130.448 173.435 131.098 173.303 131.758 173.262L131.786 173.212L129.294 171.773L130.367 169.914ZM129.84 187.097C130.838 187.679 131.966 188.002 133.12 188.036C134.284 188.074 135.434 187.771 136.427 187.164C137.435 186.567 138.271 185.721 138.857 184.707C139.442 183.693 139.757 182.545 139.77 181.374C139.787 180.215 139.476 179.075 138.874 178.084C138.28 177.077 137.434 176.241 136.419 175.658C135.394 175.065 134.234 174.745 133.05 174.73C131.879 174.696 130.723 174.99 129.713 175.58C128.713 176.156 127.885 176.987 127.313 177.988C127.008 178.513 126.776 179.077 126.623 179.665C126.475 180.245 126.399 180.841 126.396 181.44C126.401 182.1 126.507 182.756 126.711 183.385C126.953 184.128 127.337 184.817 127.84 185.415C128.397 186.094 129.075 186.664 129.84 187.097ZM29.9684 316.463L64.5565 336.433L84.5061 301.879L49.9181 281.91L29.9684 316.463ZM52.6046 301.723L46.6736 311.996L50.7245 314.335L56.2961 304.685L61.9049 307.923L56.3333 317.573L65.37 322.79L61.4161 329.639L37.1109 315.606L46.9958 298.485L52.6046 301.723ZM41.3143 356.634L24.0358 346.658C25.7931 349.685 28.3133 352.199 31.3452 353.95C34.377 355.7 37.8143 356.626 41.3143 356.634Z" fill="#FF9D7D"/>
<path d="M24.0133 326.656C22.6899 328.942 21.835 331.469 21.4983 334.089C21.1617 336.709 21.35 339.371 22.0524 341.919C22.9368 340.034 24.0175 337.99 25.1912 335.957C28.1423 330.845 30.7076 328.151 33.9306 326.475C37.3869 324.648 41.4753 324.389 45.9061 326.947C50.9513 329.86 52.8019 333.714 53.2347 337.131C53.7779 341.429 52.1651 346.475 49.2049 351.602C48.1697 353.395 47.272 354.827 46.5101 355.961C57.1751 353.111 63.5033 342.158 60.6434 331.496C57.7841 320.833 46.8203 314.499 36.1549 317.348C33.6179 318.026 31.2398 319.197 29.1565 320.794C27.0732 322.391 25.3255 324.383 24.0133 326.656Z" fill="#FF9D7D"/>
<path d="M42.0995 334.375C37.2727 331.588 33.2675 333.842 30.735 338.228C30.26 339.014 29.8614 339.845 29.5445 340.707L43.71 348.886C44.0759 348.396 44.4054 347.88 44.6964 347.343C47.6377 342.42 47.3937 337.432 42.0995 334.375Z" fill="#FF9D7D"/>
</g>
<path d="M33.0556 402.002C29.8342 402.28 27.5457 406.156 27.6917 412.732C27.8449 419.67 30.4827 424.258 34.0951 423.949C37.4309 423.661 40.1329 418.657 39.9629 410.994C39.8825 407.367 39.132 404.705 38.6157 403.25C38.2942 402.278 37.8305 402.137 37.3134 402.726L36.8651 403.309C36.3489 403.946 36.2484 404.397 36.5498 405.507C36.9185 406.566 37.5198 408.482 37.5553 410.615C37.6241 414.688 36.4447 417.494 34.4012 418.015V417.997C34.7652 416.137 34.9461 413.484 34.8765 410.342C34.8007 406.927 34.4514 404.436 33.9452 402.983V402.992C33.7565 402.367 33.4088 401.972 33.0556 402.002ZM32.394 407.785C32.1475 409.122 32.0269 410.791 32.0709 412.772C32.1158 414.787 32.3105 416.569 32.622 418.03C31.0476 417.617 29.9687 415.622 29.903 412.679C29.8449 410.051 30.7663 408.021 32.394 407.785ZM29.0837 422.927C28.416 422.473 27.9785 423.064 27.9785 424.47V426.604C27.9785 427.693 28.2312 428.42 28.7846 428.736L35.256 433.049C35.9469 433.503 37.0298 433.865 37.0298 433.865V433.957C37.0298 433.957 35.9469 434.365 35.256 434.819L28.7846 439.131C28.2312 439.449 27.9785 440.174 27.9785 441.265V443.398C27.9785 444.805 28.416 445.35 29.0837 444.895L38.9411 437.815C39.4937 437.497 39.7241 436.772 39.7241 435.681V432.051C39.7241 430.962 39.4937 430.28 38.9411 429.917L29.0837 422.927ZM29.7515 446.001H28.8534C28.2088 446.001 27.8865 446.456 27.8865 447.726C27.8865 450.994 29.4524 453.536 30.8575 454.444V454.534C30.8575 454.534 30.4888 454.398 30.0514 454.398H28.9454C28.324 454.398 27.9785 455.079 27.9785 456.305V458.075C27.9785 459.3 28.324 459.936 28.9454 459.936L38.7572 459.935C39.4018 459.935 39.7241 459.3 39.7241 458.075V456.078C39.7241 454.852 39.4018 454.217 38.7572 454.217H34.9793C32.8376 454.217 30.7191 452.174 30.7191 447.953C30.7191 446.727 30.3729 446.001 29.7515 446.001ZM33.0556 461.677C29.8342 461.955 27.5457 465.831 27.6917 472.407C27.8449 479.345 30.4827 483.935 34.0951 483.622C37.4309 483.336 40.1329 478.334 39.9629 470.67C39.8825 467.042 39.132 464.381 38.6157 462.926C38.2942 461.955 37.8305 461.813 37.3134 462.402L36.8651 462.986C36.3489 463.621 36.2484 464.073 36.5498 465.182C36.9185 466.241 37.5198 468.159 37.5553 470.29C37.6241 474.363 36.4447 477.169 34.4012 477.691V477.674C34.7652 475.814 34.9461 473.159 34.8765 470.017C34.8007 466.602 34.4514 464.111 33.9452 462.659V462.668C33.7565 462.044 33.4088 461.647 33.0556 461.677ZM32.394 467.461C32.1475 468.797 32.0269 470.466 32.0709 472.447C32.1158 474.462 32.3105 476.244 32.622 477.705C31.0476 477.293 29.9687 475.298 29.903 472.354C29.8449 469.726 30.7663 467.696 32.394 467.461ZM27.6786 499.808C26.5734 499.808 25.8368 497.901 25.8368 494.906C25.8368 492.41 26.3431 490.64 26.7349 489.322C26.9884 488.37 27.0804 487.417 26.4126 486.736L25.6521 485.919C25.1458 485.374 24.7084 485.511 24.3397 486.509C23.8327 487.871 23.0954 491.002 23.0954 494.815C23.0954 500.943 24.9611 505.663 27.8401 505.663C32.9296 505.663 32.285 490.64 35.3944 490.64C36.4996 490.64 37.2601 492.454 37.2601 495.45C37.2601 498.628 36.4308 500.943 36.0621 501.986C35.7398 503.121 35.7622 503.893 36.2692 504.619L37.0065 505.618C37.6287 506.526 38.0197 506.072 38.342 505.345C38.9642 503.758 39.9999 500.035 39.9999 495.45C39.9999 488.687 37.8126 484.785 35.1639 484.785C29.9585 484.785 30.7415 499.808 27.6786 499.808ZM37.4378 507.391C37.0166 506.579 36.5482 506.639 36.1084 507.435L35.7351 508.195C35.3 509.036 35.2513 509.52 35.6679 510.475C36.1447 511.351 36.9423 512.966 37.2105 515.033C37.7253 518.979 36.882 522.221 34.9444 523.602L34.9422 523.587C35.093 521.615 34.9786 518.948 34.5658 515.909C34.1168 512.606 33.5023 510.325 32.8485 509.123L32.8492 509.131C32.5965 508.602 32.2131 508.363 31.8715 508.544C28.7576 510.189 26.949 514.949 27.8131 521.307C28.7251 528.015 31.8043 531.37 35.297 529.527C38.5222 527.822 40.6106 521.786 39.6027 514.377C39.1266 510.869 38.1017 508.591 37.4378 507.391ZM33.2086 524.377C31.6265 524.645 30.3536 523.158 29.9672 520.311C29.6217 517.77 30.2979 515.396 31.8615 514.471C31.7679 515.882 31.833 517.563 32.0934 519.478C32.3577 521.426 32.7441 523.082 33.2086 524.377ZM11.6713 525.33C11.2787 525.33 10.9263 525.664 10.6821 526.195L0.391063 547.123C0.149148 547.598 0 548.256 0 548.981C0 549.705 0.148329 550.36 0.387987 550.835L4.27949 558.702L3.62795 558.704C2.89138 558.704 2.29393 559.881 2.29393 561.333V564.318C2.29393 565.77 2.89138 566.947 3.62795 566.947L8.35954 566.95L10.7246 571.732C10.9665 572.21 11.3011 572.507 11.6713 572.507C12.4071 572.507 13.0046 571.331 13.0046 569.878V567.101L21.9546 567.098C22.6904 567.098 23.2879 565.921 23.2879 564.471V550.711L23.2879 533.491C23.2879 532.04 22.6904 530.862 21.9546 530.862L13.0046 530.846V527.958C13.0046 526.506 12.4071 525.33 11.6713 525.33ZM16.9231 534.492C19.0385 537.836 20.3022 543.225 20.3037 548.909C20.3022 554.606 19.0331 560.004 16.9108 563.348C16.7478 563.604 16.5436 563.721 16.3342 563.675C16.1232 563.628 15.9362 563.424 15.8063 563.103C15.6941 562.825 15.6354 562.492 15.6354 562.138C15.6354 561.663 15.7428 561.222 15.9314 560.928C17.6859 558.169 18.7339 553.676 18.7339 548.909C18.7339 544.151 17.689 539.663 15.9407 536.908C15.7536 536.611 15.6463 536.171 15.6463 535.699C15.6463 535.345 15.7059 535.012 15.8187 534.733C15.9493 534.41 16.1363 534.207 16.3458 534.16C16.5552 534.117 16.7608 534.235 16.9231 534.492ZM27.7018 581.048C27.7018 588.083 30.2585 593.757 33.8509 593.757C37.4673 593.757 40 588.083 40 581.048C40 574.012 37.4673 568.294 33.8509 568.294C30.2585 568.294 27.7018 574.012 27.7018 581.048ZM33.8509 574.149C36.0397 574.149 37.5136 577.281 37.5136 581.048C37.5136 584.816 36.0397 587.902 33.8509 587.902C31.6861 587.902 30.189 584.816 30.189 581.048C30.189 577.281 31.6861 574.149 33.8509 574.149ZM38.7572 595.486H24.3398C23.7176 595.486 23.3721 596.123 23.3721 597.348V599.39C23.3721 600.66 23.7176 601.297 24.3398 601.297H30.1403C30.7601 603.55 31.0932 605.954 31.0932 608.412C31.094 611.062 30.7029 613.646 29.988 616.048H24.3398C23.7176 616.048 23.3721 616.683 23.3721 617.909V619.998C23.3721 621.222 23.7176 621.857 24.3398 621.857H38.7572C39.4018 621.857 39.7241 621.222 39.7241 619.998V617.909C39.7241 616.683 39.4018 616.048 38.7572 616.048H32.8083C33.4104 613.605 33.7381 611.033 33.7396 608.412C33.7388 605.976 33.4567 603.583 32.9335 601.297H38.7572C39.4018 601.297 39.7241 600.66 39.7241 599.39V597.347C39.7241 596.123 39.4018 595.486 38.7572 595.486ZM30.189 561.118V561.209C30.189 561.209 29.9131 561.118 29.6595 561.118H28.9454C28.324 561.118 27.9785 561.753 27.9785 562.979V564.749C27.9785 565.975 28.324 566.61 28.9454 566.61H38.7572C39.4018 566.61 39.7241 565.975 39.7241 564.749L39.7241 562.752C39.7241 561.526 39.4018 560.891 38.7572 560.891H34.4499C32.4922 560.891 30.3729 558.985 30.3729 554.9C30.3729 552.176 31.4565 551.814 32.7225 551.814H38.7572C39.4018 551.812 39.7241 551.133 39.7241 549.907V547.91C39.7241 546.684 39.4018 546.048 38.7572 546.048H34.4499C32.4002 546.048 30.3729 544.052 30.3729 540.148C30.3729 537.47 31.3869 536.972 32.7225 536.972H38.7572C39.4018 536.972 39.7241 536.335 39.7241 535.065V533.112C39.7241 531.887 39.4018 531.206 38.7572 531.206H32.1699C29.0837 531.206 27.7018 533.975 27.7018 538.786C27.7018 542.417 28.8998 545.459 30.1202 546.684V546.775C28.5311 547.729 27.7018 550.042 27.7018 553.538C27.7018 557.169 29.0374 559.983 30.189 561.118Z" fill="#FF9D7D"/>
<path d="M24.6968 405.172C24.6968 404.868 24.6018 404.697 24.4464 404.697C24.288 404.697 24.2014 404.868 24.2014 405.154V405.594H24.6968V405.172ZM24.1102 406.354C23.9873 406.354 23.9194 406.23 23.9194 405.978V404.994C23.9194 404.339 24.1288 403.917 24.4465 403.917C24.7062 403.917 24.8469 404.268 24.8785 404.492H24.8873C24.8873 404.492 24.9048 404.457 24.9824 404.374L25.3603 403.99C25.4918 403.855 25.5829 403.936 25.5829 404.178V404.295C25.5829 404.51 25.5374 404.644 25.4423 404.725L24.9693 405.154V405.595H25.392C25.5195 405.595 25.5828 405.701 25.5828 405.944V406.006C25.5828 406.248 25.5195 406.355 25.392 406.355L24.1102 406.354ZM26.0602 405.235C26.0602 403.855 25.4875 402.799 24.7602 402.799C24.0376 402.799 23.4649 403.855 23.4649 405.235C23.4649 406.587 24.0376 407.635 24.7602 407.635C25.4875 407.635 26.0602 406.587 26.0602 405.235ZM23.0962 405.235C23.0962 403.434 23.8374 402.001 24.7602 402.001C25.6838 402.001 26.4289 403.434 26.4289 405.235C26.4289 407 25.6838 408.434 24.7602 408.434C23.8374 408.434 23.0962 407 23.0962 405.235Z" fill="#FF9D7D"/>
<path d="M953.056 319.002C949.834 319.28 947.546 323.156 947.692 329.732C947.845 336.67 950.483 341.258 954.095 340.949C957.431 340.661 960.133 335.657 959.963 327.994C959.882 324.367 959.132 321.705 958.616 320.25C958.294 319.278 957.83 319.137 957.313 319.726L956.865 320.309C956.349 320.946 956.248 321.397 956.55 322.507C956.918 323.566 957.52 325.482 957.555 327.615C957.624 331.688 956.445 334.494 954.401 335.015V334.997C954.765 333.137 954.946 330.484 954.876 327.342C954.801 323.927 954.451 321.436 953.945 319.983V319.992C953.757 319.367 953.409 318.972 953.056 319.002ZM952.394 324.785C952.147 326.122 952.027 327.791 952.071 329.772C952.116 331.787 952.311 333.569 952.622 335.03C951.048 334.617 949.969 332.622 949.903 329.679C949.845 327.051 950.766 325.021 952.394 324.785ZM949.084 339.927C948.416 339.473 947.978 340.064 947.978 341.47V343.604C947.978 344.693 948.231 345.42 948.785 345.736L955.256 350.049C955.947 350.503 957.03 350.865 957.03 350.865V350.957C957.03 350.957 955.947 351.365 955.256 351.819L948.785 356.131C948.231 356.449 947.978 357.174 947.978 358.265V360.398C947.978 361.805 948.416 362.35 949.084 361.895L958.941 354.815C959.494 354.497 959.724 353.772 959.724 352.681V349.051C959.724 347.962 959.494 347.28 958.941 346.917L949.084 339.927ZM949.751 363.001H948.853C948.209 363.001 947.887 363.456 947.887 364.726C947.887 367.994 949.452 370.536 950.857 371.444V371.534C950.857 371.534 950.489 371.398 950.051 371.398H948.945C948.324 371.398 947.978 372.079 947.978 373.305V375.075C947.978 376.3 948.324 376.936 948.945 376.936L958.757 376.935C959.402 376.935 959.724 376.3 959.724 375.075V373.078C959.724 371.852 959.402 371.217 958.757 371.217H954.979C952.838 371.217 950.719 369.174 950.719 364.953C950.719 363.727 950.373 363.001 949.751 363.001ZM953.056 378.677C949.834 378.955 947.546 382.831 947.692 389.407C947.845 396.345 950.483 400.935 954.095 400.622C957.431 400.336 960.133 395.334 959.963 387.67C959.882 384.042 959.132 381.381 958.616 379.926C958.294 378.955 957.83 378.813 957.313 379.402L956.865 379.986C956.349 380.621 956.248 381.073 956.55 382.182C956.918 383.241 957.52 385.159 957.555 387.29C957.624 391.363 956.445 394.169 954.401 394.691V394.674C954.765 392.814 954.946 390.159 954.876 387.017C954.801 383.602 954.451 381.111 953.945 379.659V379.668C953.757 379.044 953.409 378.647 953.056 378.677ZM952.394 384.461C952.147 385.797 952.027 387.466 952.071 389.447C952.116 391.462 952.311 393.244 952.622 394.705C951.048 394.293 949.969 392.298 949.903 389.354C949.845 386.726 950.766 384.696 952.394 384.461ZM947.679 416.808C946.573 416.808 945.837 414.901 945.837 411.906C945.837 409.41 946.343 407.64 946.735 406.322C946.988 405.37 947.08 404.417 946.413 403.736L945.652 402.919C945.146 402.374 944.708 402.511 944.34 403.509C943.833 404.871 943.095 408.002 943.095 411.815C943.095 417.943 944.961 422.663 947.84 422.663C952.93 422.663 952.285 407.64 955.394 407.64C956.5 407.64 957.26 409.454 957.26 412.45C957.26 415.628 956.431 417.943 956.062 418.986C955.74 420.121 955.762 420.893 956.269 421.619L957.006 422.618C957.629 423.526 958.02 423.072 958.342 422.345C958.964 420.758 960 417.035 960 412.45C960 405.687 957.813 401.785 955.164 401.785C949.959 401.785 950.742 416.808 947.679 416.808ZM957.438 424.391C957.017 423.579 956.548 423.639 956.108 424.435L955.735 425.195C955.3 426.036 955.251 426.52 955.668 427.475C956.145 428.351 956.942 429.966 957.211 432.033C957.725 435.979 956.882 439.221 954.944 440.602L954.942 440.587C955.093 438.615 954.979 435.948 954.566 432.909C954.117 429.606 953.502 427.325 952.848 426.123L952.849 426.131C952.597 425.602 952.213 425.363 951.872 425.544C948.758 427.189 946.949 431.949 947.813 438.307C948.725 445.015 951.804 448.37 955.297 446.527C958.522 444.822 960.611 438.786 959.603 431.377C959.127 427.869 958.102 425.591 957.438 424.391ZM953.209 441.377C951.627 441.645 950.354 440.158 949.967 437.311C949.622 434.77 950.298 432.396 951.861 431.471C951.768 432.882 951.833 434.563 952.093 436.478C952.358 438.426 952.744 440.082 953.209 441.377ZM931.671 442.33C931.279 442.33 930.926 442.664 930.682 443.195L920.391 464.123C920.149 464.598 920 465.256 920 465.981C920 466.705 920.148 467.36 920.388 467.835L924.279 475.702L923.628 475.704C922.891 475.704 922.294 476.881 922.294 478.333V481.318C922.294 482.77 922.891 483.947 923.628 483.947L928.36 483.95L930.725 488.732C930.966 489.21 931.301 489.507 931.671 489.507C932.407 489.507 933.005 488.331 933.005 486.878V484.101L941.955 484.098C942.69 484.098 943.288 482.921 943.288 481.471V467.711V450.491C943.288 449.04 942.69 447.862 941.955 447.862L933.005 447.846V444.958C933.005 443.506 932.407 442.33 931.671 442.33ZM936.923 451.492C939.039 454.836 940.302 460.225 940.304 465.909C940.302 471.606 939.033 477.004 936.911 480.348C936.748 480.604 936.544 480.721 936.334 480.675C936.123 480.628 935.936 480.424 935.806 480.103C935.694 479.825 935.635 479.492 935.635 479.138C935.635 478.663 935.743 478.222 935.931 477.928C937.686 475.169 938.734 470.676 938.734 465.909C938.734 461.151 937.689 456.663 935.941 453.908C935.754 453.611 935.646 453.171 935.646 452.699C935.646 452.345 935.706 452.012 935.819 451.733C935.949 451.41 936.136 451.207 936.346 451.16C936.555 451.117 936.761 451.235 936.923 451.492ZM947.702 498.048C947.702 505.083 950.259 510.757 953.851 510.757C957.467 510.757 960 505.083 960 498.048C960 491.012 957.467 485.294 953.851 485.294C950.259 485.294 947.702 491.012 947.702 498.048ZM953.851 491.149C956.04 491.149 957.514 494.281 957.514 498.048C957.514 501.816 956.04 504.902 953.851 504.902C951.686 504.902 950.189 501.816 950.189 498.048C950.189 494.281 951.686 491.149 953.851 491.149ZM958.757 512.486H944.34C943.718 512.486 943.372 513.123 943.372 514.348V516.39C943.372 517.66 943.718 518.297 944.34 518.297H950.14C950.76 520.55 951.093 522.954 951.093 525.412C951.094 528.062 950.703 530.646 949.988 533.048H944.34C943.718 533.048 943.372 533.683 943.372 534.909V536.998C943.372 538.222 943.718 538.857 944.34 538.857H958.757C959.402 538.857 959.724 538.222 959.724 536.998V534.909C959.724 533.683 959.402 533.048 958.757 533.048H952.808C953.41 530.605 953.738 528.033 953.74 525.412C953.739 522.976 953.457 520.583 952.933 518.297H958.757C959.402 518.297 959.724 517.66 959.724 516.39V514.347C959.724 513.123 959.402 512.486 958.757 512.486ZM950.189 478.118V478.209C950.189 478.209 949.913 478.118 949.66 478.118H948.945C948.324 478.118 947.979 478.753 947.979 479.979V481.749C947.979 482.975 948.324 483.61 948.945 483.61H958.757C959.402 483.61 959.724 482.975 959.724 481.749V479.752C959.724 478.526 959.402 477.891 958.757 477.891H954.45C952.492 477.891 950.373 475.985 950.373 471.9C950.373 469.176 951.456 468.814 952.722 468.814H958.757C959.402 468.812 959.724 468.133 959.724 466.907V464.91C959.724 463.684 959.402 463.048 958.757 463.048H954.45C952.4 463.048 950.373 461.052 950.373 457.148C950.373 454.47 951.387 453.972 952.722 453.972H958.757C959.402 453.972 959.724 453.335 959.724 452.065V450.112C959.724 448.887 959.402 448.206 958.757 448.206H952.17C949.084 448.206 947.702 450.975 947.702 455.786C947.702 459.417 948.9 462.459 950.12 463.684V463.775C948.531 464.729 947.702 467.042 947.702 470.538C947.702 474.169 949.037 476.983 950.189 478.118Z" fill="#FF9D7D"/>
<path d="M944.697 322.172C944.697 321.868 944.602 321.697 944.446 321.697C944.288 321.697 944.201 321.868 944.201 322.154V322.594H944.697V322.172ZM944.11 323.354C943.987 323.354 943.919 323.23 943.919 322.978V321.994C943.919 321.339 944.129 320.917 944.446 320.917C944.706 320.917 944.847 321.268 944.879 321.492H944.887C944.887 321.492 944.905 321.457 944.982 321.374L945.36 320.99C945.492 320.855 945.583 320.936 945.583 321.178V321.295C945.583 321.51 945.537 321.644 945.442 321.725L944.969 322.154V322.595H945.392C945.52 322.595 945.583 322.701 945.583 322.944V323.006C945.583 323.248 945.52 323.355 945.392 323.355L944.11 323.354ZM946.06 322.235C946.06 320.855 945.488 319.799 944.76 319.799C944.038 319.799 943.465 320.855 943.465 322.235C943.465 323.587 944.038 324.635 944.76 324.635C945.488 324.635 946.06 323.587 946.06 322.235ZM943.096 322.235C943.096 320.434 943.837 319.001 944.76 319.001C945.684 319.001 946.429 320.434 946.429 322.235C946.429 324 945.684 325.434 944.76 325.434C943.837 325.434 943.096 324 943.096 322.235Z" fill="#FF9D7D"/>
<path d="M861.663 195.856L856.041 186.119L864.91 180.998L882.323 211.158L873.454 216.279L867.835 206.546L842.095 221.407L835.923 210.717L861.663 195.856ZM883.283 212.821L900.187 242.1L891.318 247.22L880.588 228.635L876.252 231.139L886.982 249.724L878.744 254.48L868.014 235.895L863.701 238.385L874.431 256.97L865.546 262.1L848.642 232.821L883.283 212.821ZM881.638 269.472L884.057 273.661C887.905 280.326 893.866 278.182 897.116 276.306C897.301 276.22 897.514 276.108 897.721 275.989C901.966 273.538 903.419 268.096 900.958 263.834C900.799 263.558 900.625 263.294 900.443 263.042L900.465 263.072L898.49 259.651L881.599 269.403L881.638 269.472ZM901.228 243.902L911.366 261.462C918.051 273.041 911.885 282.049 903.16 287.087C892.538 293.219 882.527 291.474 875.531 279.358L866.601 263.889L901.228 243.902Z" fill="#FF9D7D"/>
<g clip-path="url(#clip1_1_5770)">
<g opacity="0.405018" filter="url(#filter0_f_1_5770)">
<path fill-rule="evenodd" clip-rule="evenodd" d="M719.521 73.6926C711.424 69.0179 701.043 71.7946 696.385 79.8619C691.727 87.9292 694.521 98.2934 702.618 102.968L704.082 100.433C697.365 96.5551 695.069 88.0256 698.933 81.3332C702.797 74.6408 711.332 72.364 718.049 76.2421L719.521 73.6926ZM684.091 54.0922L682.209 53.6106C674.245 51.5835 662.558 56.0789 656.211 67.072L652.162 74.0866L654.71 75.5578L658.76 68.5432C659.106 67.9436 659.483 67.3677 659.863 66.8135L669.978 72.6529L664.903 81.4427L667.451 82.914L683.12 55.7738L684.091 54.0922ZM717.428 77.8045C711.646 74.4662 704.195 76.4815 700.841 82.2908C697.487 88.1001 699.466 95.5641 705.248 98.9023C711.03 102.241 718.486 100.224 721.84 94.4145C725.194 88.6052 723.211 81.1428 717.428 77.8045ZM728.654 84.425L727.914 85.7069L716.465 105.537L719.013 107.008L729.648 88.5897C730.847 89.6284 731.963 91.1323 732.592 92.8344C733.428 95.0962 733.473 97.6243 732.015 100.15L725.794 110.924L728.346 112.397L734.567 101.623C736.484 98.302 736.435 94.7299 735.351 91.7964C734.268 88.863 732.228 86.4884 729.927 85.1596L728.654 84.425ZM679.472 56.2075L671.456 70.0926L661.686 64.4518C666.947 58.4356 674.213 55.8185 679.472 56.2075ZM694.082 64.7478L692.602 67.3117L695.085 68.7457L684.422 87.2148L686.97 88.6861L697.634 70.2169L700.329 71.773L701.809 69.2091L694.082 64.7478ZM684.156 59.1613L683.416 60.4432L672.09 80.0611L674.638 81.5323L678.759 74.3953C679.162 74.5596 679.565 74.6831 679.965 74.7892L679.63 84.4483L682.523 86.1181L682.909 75.0869C685.592 74.8922 687.893 73.4449 689.157 71.3487C691.235 67.9035 690.4 62.7659 685.432 59.8979L684.156 59.1613ZM715.95 80.3648C720.353 82.9069 721.846 88.5195 719.292 92.9433C716.738 97.3671 711.129 98.8842 706.726 96.3421C702.323 93.8 700.836 88.1858 703.39 83.762C705.944 79.3382 711.547 77.8227 715.95 80.3648ZM685.164 63.3008C687.826 65.4098 687.794 67.9343 686.651 69.8297C685.516 71.7118 683.224 72.9709 680.228 71.8494L685.164 63.3008Z" fill="#FF9D7D"/>
</g>
<path fill-rule="evenodd" clip-rule="evenodd" d="M684.476 57.9238L683.736 59.2042L672.409 78.8232L674.958 80.2947L679.078 73.1593C679.481 73.3237 679.885 73.4473 680.284 73.5534L679.947 83.2107L682.841 84.8815L683.229 73.8486C685.912 73.654 688.211 72.2069 689.475 70.1108C691.553 66.6655 690.717 61.5276 685.75 58.6596L684.476 57.9238ZM685.484 62.0628C688.146 64.1717 688.113 66.6982 686.97 68.5936C685.836 70.4757 683.544 71.7334 680.548 70.6119L685.484 62.0628Z" fill="#FF9D7D"/>
<path fill-rule="evenodd" clip-rule="evenodd" d="M694.4 63.5117L692.922 66.0725L695.404 67.5056L684.74 85.9776L687.288 87.4491L697.953 68.9772L700.648 70.533L702.126 67.9722L694.4 63.5117Z" fill="#FF9D7D"/>
<path d="M717.749 76.5655C711.967 73.2272 704.512 75.2436 701.158 81.0529C697.804 86.8622 699.785 94.3266 705.568 97.6649C711.35 101.003 718.805 98.9868 722.159 93.1775C725.513 87.3682 723.531 79.9038 717.749 76.5655ZM716.271 79.1262C720.674 81.6683 722.164 87.2822 719.61 91.706C717.056 96.1298 711.449 97.6463 707.046 95.1041C702.643 92.562 701.153 86.9482 703.707 82.5244C706.261 78.1006 711.868 76.5841 716.271 79.1262Z" fill="#FF9D7D"/>
<path d="M719.837 72.4636C711.74 67.7889 701.352 70.552 696.694 78.6193C692.037 86.6866 694.838 97.0645 702.935 101.739L704.402 99.1981C697.685 95.3201 695.381 86.7841 699.245 80.0917C703.109 73.3994 711.653 71.1267 718.37 75.0047L719.837 72.4636Z" fill="#FF9D7D"/>
<path fill-rule="evenodd" clip-rule="evenodd" d="M728.971 83.1868L728.232 84.4671L716.782 104.299L719.33 105.771L729.964 87.3524C731.164 88.391 732.283 89.8951 732.912 91.5972C733.748 93.8589 733.794 96.3857 732.336 98.9109L726.114 109.687L728.663 111.159L734.884 100.382C736.802 97.0616 736.755 93.4917 735.671 90.5583C734.587 87.6248 732.547 85.2513 730.246 83.9225L728.971 83.1868Z" fill="#FF9D7D"/>
<path fill-rule="evenodd" clip-rule="evenodd" d="M684.412 52.8542L682.53 52.3727C674.566 50.3455 662.876 54.8383 656.529 65.8314L652.479 72.8468L655.028 74.3183L659.078 67.3029C659.424 66.7033 659.801 66.1293 660.182 65.5751L670.297 71.4151L665.223 80.2043L667.771 81.6758L683.441 54.5347L684.412 52.8542ZM679.791 54.9704L671.776 68.8544L662.005 63.2136C667.267 57.1974 674.532 54.5815 679.791 54.9704Z" fill="#FF9D7D"/>
</g>
<defs>
<filter id="filter0_f_1_5770" x="650.616" y="51.5919" width="87.0321" height="62.3509" filterUnits="userSpaceOnUse" color-interpolation-filters="sRGB">
<feFlood flood-opacity="0" result="BackgroundImageFix"/>
<feBlend mode="normal" in="SourceGraphic" in2="BackgroundImageFix" result="shape"/>
<feGaussianBlur stdDeviation="0.773036" result="effect1_foregroundBlur_1_5770"/>
</filter>
<clipPath id="clip0_1_5770">
<rect width="209" height="40" fill="white" transform="translate(14 343.999) rotate(-60)"/>
</clipPath>
<clipPath id="clip1_1_5770">
<rect width="91" height="40" fill="white" transform="translate(669 40) rotate(30)"/>
</clipPath>
</defs>
</svg>
